<svg width="852" height="99" viewBox="0 0 852 99" fill="none" xmlns="http://www.w3.org/2000/svg">
<path fill-rule="evenodd" clip-rule="evenodd" d="M65.4329 54.512C62.9214 60.4308 59.0891 65.0575 53.9358 68.392C48.4958 71.848 42.1278 73.576 34.8318 73.576C28.6238 73.576 22.9598 72.136 17.8398 69.256C12.7838 66.312 8.78383 62.248 5.83983 57.064C2.89583 51.88 1.42383 46.024 1.42383 39.496C1.42383 32.968 2.89583 27.112 5.83983 21.928C8.78383 16.68 12.7838 12.584 17.8398 9.63996C22.9598 6.69596 28.6238 5.22396 34.8318 5.22396C42.1278 5.22396 48.4958 6.98396 53.9358 10.504C59.0919 13.8403 62.9257 18.4989 65.437 24.48C65.5753 24.8093 65.7096 25.1426 65.8398 25.48H55.3758C53.5198 21.448 50.8318 18.344 47.3118 16.168C43.8558 13.992 39.6958 12.904 34.8318 12.904C30.1598 12.904 25.9678 13.992 22.2558 16.168C18.5438 18.344 15.6318 21.448 13.5198 25.48C11.4078 29.448 10.3518 34.12 10.3518 39.496C10.3518 44.808 11.4078 49.48 13.5198 53.512C15.6318 57.48 18.5438 60.552 22.2558 62.728C25.9678 64.904 30.1598 65.992 34.8318 65.992C39.6958 65.992 43.8558 64.936 47.3118 62.824C50.8318 60.648 53.5198 57.544 55.3758 53.512H65.8398C65.7083 53.8493 65.5726 54.1826 65.4329 54.512ZM4.96893 21.4365C1.93236 26.7845 0.423828 32.8127 0.423828 39.496C0.423828 46.1802 1.9328 52.2092 4.97027 57.5578C7.99979 62.8924 12.1249 67.0855 17.3366 70.1201L17.3431 70.1239L17.3496 70.1275C22.6278 73.0965 28.4622 74.576 34.8318 74.576C42.292 74.576 48.8513 72.8069 54.4721 69.2361L54.4791 69.2315C60.1063 65.5904 64.2041 60.4584 66.7715 53.8753L67.3032 52.512H54.7353L54.4674 53.0938C52.6878 56.96 50.1275 59.9072 46.788 61.9721C43.5184 63.9695 39.5479 64.992 34.8318 64.992C30.3219 64.992 26.3071 63.9437 22.7615 61.8653C19.2174 59.7877 16.4333 56.8561 14.4043 53.0453C12.3798 49.1792 11.3518 44.6722 11.3518 39.496C11.3518 34.2519 12.3813 29.7474 14.4026 25.9498L14.4057 25.944C16.436 22.0678 19.2206 19.1064 22.7615 17.0307C26.3071 14.9522 30.3219 13.904 34.8318 13.904C39.5437 13.904 43.5108 14.9564 46.779 17.0142L46.786 17.0186C50.1265 19.0836 52.6874 22.0311 54.4674 25.8981L54.7353 26.48H67.2979L66.7727 25.1197C64.2063 18.4733 60.1089 13.3072 54.4791 9.66439C48.8574 6.02684 42.2955 4.22396 34.8318 4.22396C28.4582 4.22396 22.6209 5.73733 17.3414 8.77304L17.3366 8.77578C12.1226 11.8118 7.99753 16.0385 4.96893 21.4365ZM87.8624 71.3781L87.8565 71.3748C83.7243 69.0421 80.4591 65.7402 78.0685 61.4902L78.064 61.4822L78.0596 61.4741C75.73 57.1476 74.5801 52.1802 74.5801 46.6C74.5801 41.0773 75.7648 36.1678 78.1645 31.9017L78.167 31.8973C80.6223 27.584 83.9538 24.2799 88.1556 22.0109C92.3469 19.6836 97.0266 18.528 102.172 18.528C107.318 18.528 111.997 19.6836 116.189 22.0109C120.387 24.2781 123.688 27.5486 126.081 31.8006C128.547 36.0691 129.764 41.0132 129.764 46.6C129.764 52.193 128.512 57.1707 125.981 61.5023C123.522 65.7537 120.158 69.0525 115.9 71.3813C111.647 73.7074 106.936 74.864 101.788 74.864C96.7021 74.864 92.0531 73.7063 87.8624 71.3781ZM125.116 61C127.548 56.84 128.764 52.04 128.764 46.6C128.764 41.16 127.58 36.392 125.212 32.296C122.908 28.2 119.74 25.064 115.708 22.888C111.676 20.648 107.164 19.528 102.172 19.528C97.1801 19.528 92.6681 20.648 88.6361 22.888C84.6041 25.064 81.4041 28.232 79.0361 32.392C76.7321 36.488 75.5801 41.224 75.5801 46.6C75.5801 52.04 76.7001 56.84 78.9401 61C81.2441 65.096 84.3801 68.264 88.3481 70.504C92.3801 72.744 96.8601 73.864 101.788 73.864C106.78 73.864 111.324 72.744 115.42 70.504C119.516 68.264 122.748 65.096 125.116 61ZM116.378 56.8528L116.382 56.8458C118 54.0878 118.836 50.6879 118.836 46.6C118.836 42.506 118.03 39.1009 116.47 36.34C114.889 33.5438 112.846 31.5144 110.348 30.2058L110.34 30.2015L110.332 30.1971C107.795 28.8076 105.048 28.112 102.076 28.112C99.0363 28.112 96.2585 28.8093 93.7244 30.1971L93.7169 30.2012C91.2855 31.5058 89.3057 33.5305 87.7867 36.3255C86.2845 39.0895 85.5081 42.5001 85.5081 46.6C85.5081 50.7687 86.2544 54.2137 87.6949 56.9781C89.2132 59.7689 91.1938 61.8269 93.6292 63.1952C96.0978 64.5181 98.8113 65.184 101.788 65.184C104.76 65.184 107.542 64.4882 110.148 63.0942C112.719 61.7191 114.795 59.6532 116.374 56.8599L116.378 56.8528ZM93.1481 64.072C90.5241 62.6 88.4121 60.392 86.8121 57.448C85.2761 54.504 84.5081 50.888 84.5081 46.6C84.5081 42.376 85.3081 38.792 86.9081 35.848C88.5081 32.904 90.6201 30.728 93.2441 29.32C95.9321 27.848 98.8761 27.112 102.076 27.112C105.212 27.112 108.124 27.848 110.812 29.32C113.5 30.728 115.676 32.904 117.34 35.848C119.004 38.792 119.836 42.376 119.836 46.6C119.836 50.824 118.972 54.408 117.244 57.352C115.58 60.296 113.372 62.504 110.62 63.976C107.868 65.448 104.924 66.184 101.788 66.184C98.6521 66.184 95.7721 65.48 93.1481 64.072ZM225.826 74H215.186V43.24C215.186 38.15 213.915 34.435 211.527 31.93L211.518 31.9214L211.51 31.9126C209.171 29.3392 205.97 28.016 201.786 28.016C197.48 28.016 194.148 29.3997 191.677 32.1062L191.669 32.1143C189.213 34.7465 187.906 38.6561 187.906 44.008V74H177.266V43.24C177.266 38.15 175.995 34.435 173.607 31.93L173.598 31.9214L173.59 31.9126C171.251 29.3392 168.05 28.016 163.866 28.016C159.56 28.016 156.228 29.3997 153.757 32.1062L153.749 32.1143C151.293 34.7465 149.986 38.6561 149.986 44.008V74H139.25V19.392H149.986V24.9658C151.512 23.2352 153.333 21.8282 155.443 20.7495L155.451 20.7455C158.544 19.1993 161.93 18.432 165.594 18.432C170.165 18.432 174.248 19.4605 177.811 21.5448C180.802 23.294 183.152 25.7261 184.861 28.8164C186.437 25.8296 188.71 23.4348 191.669 21.6479C195.225 19.5009 199.182 18.432 203.514 18.432C207.752 18.432 211.565 19.3265 214.926 21.1403C218.312 22.9025 220.977 25.5775 222.92 29.1279C224.874 32.7004 225.826 37.0027 225.826 41.992V74ZM185.428 29.9142C186.926 26.79 189.179 24.3199 192.186 22.504C195.578 20.456 199.354 19.432 203.514 19.432C207.61 19.432 211.258 20.296 214.458 22.024C217.658 23.688 220.186 26.216 222.042 29.608C223.898 33 224.826 37.128 224.826 41.992V73H216.186V43.24C216.186 37.992 214.874 33.992 212.25 31.24C209.69 28.424 206.202 27.016 201.786 27.016C197.242 27.016 193.626 28.488 190.938 31.432C188.25 34.312 186.906 38.504 186.906 44.008V73H178.266V43.24C178.266 37.992 176.954 33.992 174.33 31.24C171.77 28.424 168.282 27.016 163.866 27.016C159.322 27.016 155.706 28.488 153.018 31.432C150.33 34.312 148.986 38.504 148.986 44.008V73H140.25V20.392H148.986V27.976C149.301 27.4754 149.634 26.9961 149.986 26.5379C151.571 24.4769 153.542 22.8442 155.898 21.64C158.842 20.168 162.074 19.432 165.594 19.432C170.01 19.432 173.914 20.424 177.306 22.408C180.331 24.1769 182.668 26.6836 184.319 29.928C184.519 30.3224 184.71 30.7277 184.89 31.144C185.057 30.7234 185.236 30.3135 185.428 29.9142ZM255.161 71.7497L255.152 71.744C252.661 70.2404 250.571 68.4764 248.893 66.4489V98.96H238.157V19.392H248.893V26.8928C250.534 24.8999 252.596 23.1828 255.065 21.7382C258.694 19.5882 262.874 18.528 267.573 18.528C272.411 18.528 276.813 19.69 280.753 22.0268C284.757 24.3638 287.891 27.6694 290.15 31.9187C292.416 36.1197 293.533 40.9916 293.533 46.504C293.533 51.9559 292.415 56.8545 290.155 61.1755C287.898 65.4896 284.766 68.8611 280.761 71.2644C276.82 73.6678 272.416 74.864 267.573 74.864C262.94 74.864 258.796 73.8366 255.171 71.7552L255.161 71.7497ZM280.245 22.888C276.469 20.648 272.245 19.528 267.573 19.528C263.029 19.528 259.029 20.552 255.573 22.6C252.783 24.2314 250.557 26.2091 248.893 28.5329C248.533 29.0351 248.2 29.5534 247.893 30.088V20.392H239.157V97.96H247.893V63.304C248.202 63.8234 248.535 64.3286 248.893 64.8194C250.604 67.1708 252.862 69.1936 255.669 70.888C259.125 72.872 263.093 73.864 267.573 73.864C272.245 73.864 276.469 72.712 280.245 70.408C284.085 68.104 287.093 64.872 289.269 60.712C291.445 56.552 292.533 51.816 292.533 46.504C292.533 41.128 291.445 36.424 289.269 32.392C287.093 28.296 284.085 25.128 280.245 22.888ZM274.189 30.2892L274.18 30.2842C271.652 28.8393 268.848 28.112 265.749 28.112C262.724 28.112 259.922 28.8657 257.323 30.3765L257.317 30.3802C254.806 31.8147 252.755 33.944 251.17 36.8076C249.663 39.582 248.893 42.836 248.893 46.6C248.893 50.4263 249.662 53.7445 251.17 56.5833C252.752 59.3783 254.803 61.5121 257.32 63.0135C259.917 64.4605 262.721 65.184 265.749 65.184C268.847 65.184 271.65 64.4571 274.178 63.0131C276.76 61.5109 278.808 59.3787 280.324 56.5901C281.833 53.7519 282.605 50.4002 282.605 46.504C282.605 42.672 281.833 39.3861 280.326 36.6135C278.81 33.8248 276.765 31.727 274.189 30.2892ZM281.205 57.064C279.605 60.008 277.429 62.28 274.677 63.88C271.989 65.416 269.013 66.184 265.749 66.184C262.549 66.184 259.573 65.416 256.821 63.88C254.133 62.28 251.957 60.008 250.293 57.064C248.693 54.056 247.893 50.568 247.893 46.6C247.893 42.696 248.693 39.272 250.293 36.328C251.957 33.32 254.133 31.048 256.821 29.512C259.573 27.912 262.549 27.112 265.749 27.112C269.013 27.112 271.989 27.88 274.677 29.416C277.429 30.952 279.605 33.192 281.205 36.136C282.805 39.08 283.605 42.536 283.605 46.504C283.605 50.536 282.805 54.056 281.205 57.064ZM313.768 0.959961V74H303.032V0.959961H313.768ZM376.27 50.96H334.407C334.875 55.4181 336.516 58.8716 339.27 61.4091C342.339 64.1132 346.032 65.472 350.409 65.472C354.031 65.472 356.954 64.6448 359.246 63.0586C361.633 61.3871 363.294 59.1913 364.248 56.4474L364.482 55.776H375.917L375.564 57.0442C374.097 62.3133 371.153 66.6263 366.756 69.9571L366.749 69.9629C362.321 73.2501 356.853 74.864 350.409 74.864C345.261 74.864 340.609 73.7074 336.477 71.3748L336.471 71.3714C332.401 69.0361 329.2 65.7312 326.875 61.4798L326.872 61.4741C324.543 57.1476 323.393 52.1802 323.393 46.6C323.393 41.0247 324.508 36.0904 326.773 31.8268C329.036 27.5682 332.21 24.2891 336.288 22.0157C340.423 19.6819 345.139 18.528 350.409 18.528C355.55 18.528 360.14 19.6501 364.15 21.9219C368.149 24.1883 371.228 27.3306 373.366 31.336C375.567 35.275 376.657 39.7315 376.657 44.68C376.657 46.3822 376.558 48.1767 376.363 50.0629L376.27 50.96ZM336.777 22.888C332.873 25.064 329.833 28.2 327.657 32.296C325.481 36.392 324.393 41.16 324.393 46.6C324.393 52.04 325.513 56.84 327.753 61C329.993 65.096 333.065 68.264 336.969 70.504C340.937 72.744 345.417 73.864 350.409 73.864C356.681 73.864 361.929 72.296 366.153 69.16C370.095 66.1735 372.81 62.3789 374.3 57.776C374.406 57.4468 374.507 57.1134 374.601 56.776H365.193C364.169 59.72 362.377 62.088 359.817 63.88C357.321 65.608 354.185 66.472 350.409 66.472C345.801 66.472 341.865 65.032 338.601 62.152C335.609 59.4 333.876 55.6693 333.402 50.96C333.368 50.6314 333.341 50.2981 333.321 49.96H375.369C375.561 48.104 375.657 46.344 375.657 44.68C375.657 39.88 374.601 35.592 372.489 31.816C370.441 27.976 367.497 24.968 363.657 22.792C359.817 20.616 355.401 19.528 350.409 19.528C345.289 19.528 340.745 20.648 336.777 22.888ZM363.575 34.8399L363.569 34.8298C362.198 32.5647 360.33 30.875 357.948 29.7432L357.934 29.7367L357.92 29.7298C355.579 28.5289 352.953 27.92 350.025 27.92C345.844 27.92 342.311 29.2441 339.368 31.8846C336.738 34.2974 335.108 37.5935 334.534 41.856H365.609C365.475 39.1162 364.786 36.7882 363.575 34.8399ZM366.61 41.856C366.625 42.1843 366.633 42.5177 366.633 42.856H333.417C333.447 42.5176 333.483 42.1843 333.526 41.856C334.109 37.3398 335.833 33.7691 338.697 31.144C341.833 28.328 345.609 26.92 350.025 26.92C353.097 26.92 355.881 27.56 358.377 28.84C360.937 30.056 362.953 31.88 364.425 34.312C365.747 36.4393 366.475 38.9539 366.61 41.856ZM414.095 74L402.18 55.3028L390.724 74H379.2L396.845 46.884L379.215 19.392H391.479L403.392 37.9944L414.755 19.392H426.278L408.729 46.4123L426.358 74H414.095ZM407.54 46.408L424.436 20.392H415.316L403.412 39.88L390.932 20.392H381.044L398.036 46.888L381.044 73H390.164L402.164 53.416L414.644 73H424.532L407.54 46.408ZM467.621 72.2801L467.611 72.2754C464.019 70.6123 461.156 68.3326 459.06 65.4248L459.054 65.4159C456.947 62.4263 455.867 58.9972 455.799 55.1615L455.781 54.144H467.014L467.106 55.0424C467.402 57.9422 468.574 60.3763 470.638 62.3849C472.696 64.2648 475.742 65.28 479.935 65.28C483.935 65.28 486.939 64.297 489.073 62.4516C491.282 60.5326 492.375 58.122 492.375 55.144C492.375 52.7758 491.729 50.9468 490.512 49.5646C489.216 48.0914 487.591 46.9641 485.617 46.1864C483.555 45.3743 480.749 44.4898 477.182 43.5345C472.744 42.3764 469.14 41.2101 466.389 40.0311L466.381 40.0276C463.595 38.8045 461.195 36.9054 459.182 34.3556L459.173 34.3443L459.165 34.3327C457.143 31.6142 456.183 28.055 456.183 23.752C456.183 19.925 457.16 16.4984 459.132 13.5056C461.1 10.5205 463.842 8.22708 467.324 6.62L467.331 6.61698C470.872 5.01323 474.889 4.22396 479.359 4.22396C485.799 4.22396 491.152 5.83604 495.335 9.14035C499.587 12.4482 501.992 16.8599 502.53 22.3097L502.639 23.408H491.052L490.943 22.532C490.661 20.274 489.48 18.2537 487.273 16.4647L487.267 16.4596L487.261 16.4545C485.116 14.6576 482.228 13.712 478.495 13.712C475.029 13.712 472.295 14.6204 470.207 16.3602L470.201 16.3655L470.194 16.3707C468.162 18.0076 467.111 20.3247 467.111 23.464C467.111 25.6976 467.722 27.4297 468.872 28.7487C470.173 30.1661 471.74 31.2624 473.584 32.0384C475.592 32.7902 478.402 33.675 482.028 34.6928C486.464 35.9143 490.066 37.1448 492.819 38.3889C495.67 39.6129 498.103 41.5461 500.116 44.1618C502.216 46.8242 503.207 50.3951 503.207 54.76C503.207 58.2106 502.291 61.4598 500.473 64.4905C498.638 67.5483 495.932 70.0032 492.402 71.8682C488.84 73.7501 484.673 74.672 479.935 74.672C475.402 74.672 471.295 73.8832 467.631 72.2845L467.621 72.2801ZM499.327 44.776C497.407 42.28 495.103 40.456 492.415 39.304C489.727 38.088 486.175 36.872 481.759 35.656C478.111 34.632 475.263 33.736 473.215 32.968C471.231 32.136 469.535 30.952 468.127 29.416C466.783 27.88 466.111 25.896 466.111 23.464C466.111 20.072 467.263 17.448 469.567 15.592C471.871 13.672 474.847 12.712 478.495 12.712C482.399 12.712 485.535 13.704 487.903 15.688C490.271 17.608 491.615 19.848 491.935 22.408H501.535C501.502 22.0703 501.461 21.7369 501.413 21.408C500.72 16.6864 498.488 12.8597 494.719 9.92796C490.751 6.79196 485.631 5.22396 479.359 5.22396C475.007 5.22396 471.135 5.99196 467.743 7.52796C464.415 9.06396 461.823 11.24 459.967 14.056C458.111 16.872 457.183 20.104 457.183 23.752C457.183 27.912 458.111 31.24 459.967 33.736C461.887 36.168 464.159 37.96 466.783 39.112C469.471 40.264 473.023 41.416 477.439 42.568C481.023 43.528 483.871 44.424 485.983 45.256C488.095 46.088 489.855 47.304 491.263 48.904C492.671 50.504 493.375 52.584 493.375 55.144C493.375 58.408 492.159 61.096 489.727 63.208C487.359 65.256 484.095 66.28 479.935 66.28C475.583 66.28 472.255 65.224 469.951 63.112C467.711 60.936 466.431 58.28 466.111 55.144H456.799C456.805 55.4808 456.819 55.8142 456.841 56.144C457.06 59.3853 458.07 62.284 459.871 64.84C461.855 67.592 464.575 69.768 468.031 71.368C471.551 72.904 475.519 73.672 479.935 73.672C484.543 73.672 488.543 72.776 491.935 70.984C495.327 69.192 497.887 66.856 499.615 63.976C501.343 61.096 502.207 58.024 502.207 54.76C502.207 50.536 501.247 47.208 499.327 44.776ZM561.865 19.392L529.366 98.768H518.181L528.959 72.4233L507.335 19.392H519.204L535.025 60.2335L550.663 19.392H561.865ZM535.031 63.016L518.519 20.392H508.823L530.039 72.424L519.671 97.768H528.695L560.375 20.392H551.351L535.031 63.016ZM576.538 72.7667L576.53 72.7633C573.198 71.297 570.526 69.2792 568.554 66.6946L568.546 66.6847C566.57 64.0276 565.482 60.9917 565.278 57.6039L565.215 56.544H576.208L576.296 57.4469C576.523 59.7803 577.589 61.6748 579.55 63.1769C581.573 64.678 584.257 65.472 587.685 65.472C590.874 65.472 593.258 64.7663 594.948 63.4704C596.644 62.1701 597.437 60.5972 597.437 58.696C597.437 57.696 597.216 56.881 596.812 56.2128C596.409 55.5444 595.787 54.9649 594.895 54.4911L594.885 54.4854L594.874 54.4795C592.943 53.3934 589.878 52.2991 585.615 51.2172L585.607 51.2153C581.679 50.1849 578.433 49.148 575.881 48.1011L575.867 48.0952L575.852 48.0888C573.286 46.9406 571.057 45.2847 569.172 43.1305L569.161 43.118L569.151 43.1052C567.244 40.7745 566.333 37.7811 566.333 34.216C566.333 31.3142 567.201 28.648 568.919 26.2427C570.639 23.8342 573.064 21.9701 576.142 20.6302C579.234 19.2202 582.737 18.528 586.629 18.528C592.623 18.528 597.571 20.0459 601.375 23.1712C605.201 26.3141 607.231 30.6216 607.499 35.99L607.552 37.04H596.832L596.767 36.1096C596.593 33.6196 595.596 31.6728 593.774 30.1921L593.768 30.1872L593.762 30.1822C592.008 28.7107 589.571 27.92 586.341 27.92C583.339 27.92 581.072 28.5636 579.439 29.7459C577.827 30.9136 577.069 32.3801 577.069 34.216C577.069 35.7032 577.525 36.8836 578.409 37.829C579.454 38.8112 580.744 39.636 582.293 40.2941C583.98 40.9178 586.309 41.6422 589.292 42.4671C593.086 43.4963 596.204 44.5331 598.63 45.5813C601.145 46.6024 603.288 48.1689 605.052 50.2697C606.962 52.4658 607.913 55.2974 607.98 58.676L607.981 58.686V58.696C607.981 61.7741 607.122 64.5662 605.402 67.0424C603.685 69.5153 601.262 71.4467 598.18 72.8537L598.171 72.8578C595.14 74.2047 591.669 74.864 587.781 74.864C583.637 74.864 579.886 74.1731 576.545 72.7699L576.538 72.7667ZM589.029 43.432C586.021 42.6 583.653 41.864 581.925 41.224C580.261 40.52 578.853 39.624 577.701 38.536C576.613 37.384 576.069 35.944 576.069 34.216C576.069 32.04 576.997 30.28 578.853 28.936C580.709 27.592 583.205 26.92 586.341 26.92C589.733 26.92 592.421 27.752 594.405 29.416C596.453 31.08 597.573 33.288 597.765 36.04H606.501C606.484 35.7019 606.46 35.3686 606.428 35.04C605.984 30.3922 604.088 26.6936 600.741 23.944C597.157 21 592.453 19.528 586.629 19.528C582.853 19.528 579.493 20.2 576.549 21.544C573.605 22.824 571.333 24.584 569.733 26.824C568.133 29.064 567.333 31.528 567.333 34.216C567.333 37.608 568.197 40.36 569.925 42.472C571.717 44.52 573.829 46.088 576.261 47.176C578.757 48.2 581.957 49.224 585.861 50.248C590.149 51.336 593.317 52.456 595.365 53.608C597.413 54.696 598.437 56.392 598.437 58.696C598.437 60.936 597.477 62.792 595.557 64.264C593.637 65.736 591.013 66.472 587.685 66.472C584.101 66.472 581.189 65.64 578.949 63.976C576.773 62.312 575.557 60.168 575.301 57.544H566.277C566.297 57.8812 566.326 58.2145 566.365 58.544C566.694 61.3403 567.688 63.855 569.349 66.088C571.205 68.52 573.733 70.44 576.933 71.848C580.133 73.192 583.749 73.864 587.781 73.864C591.557 73.864 594.885 73.224 597.765 71.944C600.709 70.6 602.981 68.776 604.581 66.472C606.181 64.168 606.981 61.576 606.981 58.696C606.917 55.496 606.021 52.904 604.293 50.92C602.629 48.936 600.613 47.464 598.245 46.504C595.877 45.48 592.805 44.456 589.029 43.432ZM644.697 64.608V74H635.825C630.826 74 626.891 72.8507 624.203 70.3755C621.476 67.8634 620.233 63.848 620.233 58.6V28.592H613.417V19.392H620.233V6.14396H630.969V19.392H644.697V28.592H630.969V58.6C630.969 61.0503 631.494 62.5427 632.297 63.3539C633.102 64.1029 634.659 64.608 637.265 64.608H644.697ZM631.601 64.072C630.513 62.984 629.969 61.16 629.969 58.6V27.592H643.697V20.392H629.969V7.14396H621.233V20.392H614.417V27.592H621.233V58.6C621.233 63.72 622.449 67.4 624.881 69.64C627.313 71.88 630.961 73 635.825 73H643.697V65.608H637.265C634.577 65.608 632.689 65.096 631.601 64.072ZM702.895 50.96H661.032C661.5 55.4181 663.141 58.8716 665.895 61.4091C668.964 64.1132 672.657 65.472 677.034 65.472C680.654 65.472 683.577 64.6454 685.869 63.0604C688.257 61.3886 689.918 59.1922 690.873 56.4474L691.107 55.776H702.542L702.189 57.0442C700.722 62.3133 697.778 66.6263 693.381 69.9571L693.374 69.9629C688.946 73.2501 683.478 74.864 677.034 74.864C671.886 74.864 667.234 73.7074 663.102 71.3748L663.096 71.3714C659.026 69.0361 655.825 65.7312 653.5 61.4798L653.497 61.4741C651.167 57.1476 650.018 52.1802 650.018 46.6C650.018 41.0247 651.133 36.0904 653.398 31.8268C655.66 27.5691 658.833 24.2905 662.91 22.0171C667.046 19.6824 671.763 18.528 677.034 18.528C682.175 18.528 686.765 19.6501 690.775 21.9219C694.775 24.1887 697.854 27.3318 699.992 31.3384C702.193 35.2768 703.282 39.7326 703.282 44.68C703.282 46.3822 703.183 48.1767 702.988 50.0629L702.895 50.96ZM699.114 31.816C697.066 27.976 694.122 24.968 690.282 22.792C686.442 20.616 682.026 19.528 677.034 19.528C671.914 19.528 667.37 20.648 663.402 22.888C659.498 25.064 656.458 28.2 654.282 32.296C652.106 36.392 651.018 41.16 651.018 46.6C651.018 52.04 652.138 56.84 654.378 61C656.618 65.096 659.69 68.264 663.594 70.504C667.562 72.744 672.042 73.864 677.034 73.864C683.306 73.864 688.554 72.296 692.778 69.16C696.72 66.1735 699.435 62.3789 700.925 57.776C701.031 57.4468 701.132 57.1134 701.226 56.776H691.818C690.794 59.72 689.002 62.088 686.442 63.88C683.946 65.608 680.81 66.472 677.034 66.472C672.426 66.472 668.49 65.032 665.226 62.152C662.234 59.4 660.501 55.6693 660.027 50.96C659.993 50.6314 659.966 50.2981 659.946 49.96H701.994C702.186 48.104 702.282 46.344 702.282 44.68C702.282 39.88 701.226 35.592 699.114 31.816ZM690.2 34.8399L690.194 34.8298C688.823 32.5647 686.955 30.875 684.573 29.7432L684.559 29.7367L684.545 29.7298C682.204 28.5289 679.578 27.92 676.65 27.92C672.47 27.92 668.937 29.2437 665.995 31.8834C663.364 34.2962 661.734 37.5928 661.159 41.856H692.234C692.1 39.1162 691.411 36.7882 690.2 34.8399ZM693.235 41.856C693.25 42.1843 693.258 42.5177 693.258 42.856H660.042C660.072 42.5176 660.108 42.1843 660.151 41.856C660.734 37.3398 662.458 33.7691 665.322 31.144C668.458 28.328 672.234 26.92 676.65 26.92C679.722 26.92 682.506 27.56 685.002 28.84C687.562 30.056 689.578 31.88 691.05 34.312C692.372 36.4393 693.1 38.9539 693.235 41.856ZM799.389 74H788.749V43.24C788.749 38.15 787.478 34.435 785.089 31.93L785.081 31.9214L785.073 31.9126C782.733 29.3392 779.533 28.016 775.349 28.016C771.042 28.016 767.71 29.3997 765.239 32.1062L765.232 32.1143C762.775 34.7465 761.469 38.6561 761.469 44.008V74H750.829V43.24C750.829 38.15 749.558 34.435 747.169 31.93L747.161 31.9214L747.153 31.9126C744.813 29.3392 741.613 28.016 737.429 28.016C733.122 28.016 729.79 29.3997 727.319 32.1062L727.312 32.1143C724.855 34.7465 723.549 38.6561 723.549 44.008V74H712.813V19.392H723.549V24.9658C725.075 23.2352 726.895 21.8282 729.006 20.7495L729.014 20.7455C732.106 19.1993 735.493 18.432 739.157 18.432C743.728 18.432 747.81 19.4605 751.374 21.5448C754.364 23.294 756.715 25.7261 758.423 28.8164C759.999 25.8296 762.272 23.4348 765.232 21.6479C768.788 19.5009 772.744 18.432 777.077 18.432C781.315 18.432 785.127 19.3265 788.489 21.1404C791.875 22.9026 794.539 25.5774 796.482 29.1279C798.437 32.7004 799.389 37.0027 799.389 41.992V74ZM788.021 22.024C784.821 20.296 781.173 19.432 777.077 19.432C772.917 19.432 769.141 20.456 765.749 22.504C762.741 24.3199 760.488 26.79 758.99 29.9142C758.799 30.3134 758.62 30.7234 758.453 31.144C758.272 30.7278 758.082 30.3224 757.881 29.928C756.231 26.6836 753.893 24.1769 750.869 22.408C747.477 20.424 743.573 19.432 739.157 19.432C735.637 19.432 732.405 20.168 729.461 21.64C727.105 22.8442 725.134 24.4769 723.549 26.5379C723.196 26.9961 722.863 27.4754 722.549 27.976V20.392H713.813V73H722.549V44.008C722.549 38.504 723.893 34.312 726.581 31.432C729.269 28.488 732.885 27.016 737.429 27.016C741.845 27.016 745.333 28.424 747.893 31.24C750.517 33.992 751.829 37.992 751.829 43.24V73H760.469V44.008C760.469 38.504 761.813 34.312 764.501 31.432C767.189 28.488 770.805 27.016 775.349 27.016C779.765 27.016 783.253 28.424 785.813 31.24C788.437 33.992 789.749 37.992 789.749 43.24V73H798.389V41.992C798.389 37.128 797.461 33 795.605 29.608C793.749 26.216 791.221 23.688 788.021 22.024ZM820.1 72.7667L820.092 72.7633C816.76 71.297 814.089 69.2792 812.116 66.6946L812.109 66.6847C810.133 64.0276 809.044 60.9917 808.841 57.6039L808.777 56.544H819.77L819.858 57.4469C820.086 59.7803 821.151 61.6748 823.112 63.1769C825.136 64.678 827.819 65.472 831.247 65.472C834.436 65.472 836.82 64.7663 838.511 63.4704C840.207 62.1701 840.999 60.5972 840.999 58.696C840.999 57.696 840.778 56.881 840.375 56.2128C839.971 55.5444 839.35 54.9649 838.458 54.4911L838.447 54.4854L838.437 54.4795C836.506 53.3934 833.441 52.2991 829.177 51.2172L829.169 51.2153C825.241 50.1849 821.995 49.148 819.444 48.1011L819.429 48.0952L819.415 48.0888C816.848 46.9406 814.619 45.2847 812.734 43.1305L812.724 43.118L812.713 43.1052C810.806 40.7745 809.895 37.7811 809.895 34.216C809.895 31.3142 810.763 28.648 812.481 26.2427C814.202 23.8342 816.626 21.9701 819.705 20.6302C822.797 19.2202 826.299 18.528 830.191 18.528C836.186 18.528 841.133 20.0459 844.938 23.1712C848.764 26.3141 850.793 30.6216 851.062 35.99L851.114 37.04H840.394L840.33 36.1096C840.156 33.6196 839.159 31.6728 837.336 30.1921L837.33 30.1872L837.324 30.1822C835.57 28.7107 833.134 27.92 829.903 27.92C826.902 27.92 824.634 28.5636 823.002 29.7459C821.389 30.9136 820.631 32.3801 820.631 34.216C820.631 35.7032 821.087 36.8836 821.971 37.829C823.017 38.8112 824.306 39.636 825.856 40.2941C827.543 40.9178 829.872 41.6422 832.854 42.4671C836.649 43.4963 839.767 44.5331 842.193 45.5813C844.707 46.6024 846.851 48.1689 848.615 50.2697C850.525 52.4658 851.475 55.2974 851.543 58.676L851.543 58.686V58.696C851.543 61.7741 850.684 64.5662 848.964 67.0424C847.247 69.5153 844.824 71.4467 841.742 72.8537L841.733 72.8578C838.703 74.2047 835.232 74.864 831.343 74.864C827.199 74.864 823.449 74.1731 820.108 72.7699L820.1 72.7667ZM832.591 43.432C829.583 42.6 827.215 41.864 825.487 41.224C823.823 40.52 822.415 39.624 821.263 38.536C820.175 37.384 819.631 35.944 819.631 34.216C819.631 32.04 820.559 30.28 822.415 28.936C824.271 27.592 826.767 26.92 829.903 26.92C833.295 26.92 835.983 27.752 837.967 29.416C840.015 31.08 841.135 33.288 841.327 36.04H850.063C850.046 35.7019 850.022 35.3686 849.991 35.04C849.546 30.3922 847.65 26.6936 844.303 23.944C840.719 21 836.015 19.528 830.191 19.528C826.415 19.528 823.055 20.2 820.111 21.544C817.167 22.824 814.895 24.584 813.295 26.824C811.695 29.064 810.895 31.528 810.895 34.216C810.895 37.608 811.759 40.36 813.487 42.472C815.279 44.52 817.391 46.088 819.823 47.176C822.319 48.2 825.519 49.224 829.423 50.248C833.711 51.336 836.879 52.456 838.927 53.608C840.975 54.696 841.999 56.392 841.999 58.696C841.999 60.936 841.039 62.792 839.119 64.264C837.199 65.736 834.575 66.472 831.247 66.472C827.663 66.472 824.751 65.64 822.511 63.976C820.335 62.312 819.119 60.168 818.863 57.544H809.839C809.859 57.8812 809.889 58.2145 809.928 58.544C810.256 61.3403 811.251 63.855 812.911 66.088C814.767 68.52 817.295 70.44 820.495 71.848C823.695 73.192 827.311 73.864 831.343 73.864C835.119 73.864 838.447 73.224 841.327 71.944C844.271 70.6 846.543 68.776 848.143 66.472C849.743 64.168 850.543 61.576 850.543 58.696C850.479 55.496 849.583 52.904 847.855 50.92C846.191 48.936 844.175 47.464 841.807 46.504C839.439 45.48 836.367 44.456 832.591 43.432ZM312.768 1.95996H304.032V73H312.768V1.95996Z" fill="white"/>
</svg>
