<svg width="69" height="53" viewBox="0 0 69 53" fill="none" xmlns="http://www.w3.org/2000/svg">
<path fill-rule="evenodd" clip-rule="evenodd" d="M40.187 14.3082C42.1256 14.3081 44.0207 14.8287 45.6326 15.8042C47.2446 16.7798 48.501 18.1664 49.243 19.7887C49.985 21.4111 50.1793 23.1964 49.8012 24.9188C49.4232 26.6411 48.4898 28.2233 47.1191 29.4651C45.7484 30.707 44.002 31.5527 42.1007 31.8955C40.1994 32.2382 38.2286 32.0625 36.4375 31.3906C34.6464 30.7187 33.1155 29.5808 32.0383 28.1207C30.9612 26.6606 30.3862 24.944 30.386 23.1879C30.391 20.8345 31.4252 18.5787 33.2621 16.9145C35.099 15.2502 37.589 14.3131 40.187 14.3082" fill="#171412"/>
<path fill-rule="evenodd" clip-rule="evenodd" d="M36.1962 34.3622C32.1716 34.352 29.5072 32.4896 28.2521 29.5148C26.9969 26.5399 27.1524 22.3811 27.1524 17.8718C27.1524 13.6355 27.7789 8.42128 24.6533 4.83335C22.5396 2.355 19.4709 0.690857 16.061 0.173728C12.3331 -0.44887 7.54828 0.696302 4.80811 2.19734C7.31583 2.7849 9.5085 4.16628 10.9893 6.09147C15.7786 12.2106 15.4894 20.435 19.2849 27.2108C22.1393 32.3141 27.9141 36.4103 34.5504 36.5614L56.6724 36.5532V13.549C55.2205 13.4305 53.7577 13.4859 52.3218 13.7137C50.6257 13.9592 48.9708 14.3982 47.3965 15.0201C48.0296 15.4889 48.6057 16.0174 49.1151 16.5967C49.8787 16.2961 50.6747 16.0681 51.4902 15.9163C52.3965 15.7199 53.3224 15.6073 54.2537 15.5801V34.3622" fill="#A9181B"/>
<path fill-rule="evenodd" clip-rule="evenodd" d="M33.3628 41.2786C29.883 41.3095 26.4192 40.8485 23.0962 39.9123C15.8319 37.688 11.488 32.4384 8.96191 26.2029C7.77285 23.5778 7.11184 20.6751 5.16938 18.3779C3.8929 16.8521 2.0618 15.7843 0 15.3636C1.10338 14.4735 2.42192 13.8302 3.84962 13.4856C7.83068 12.5657 10.9622 14.3498 12.1257 17.9084C13.2374 21.3106 14.2334 24.8563 15.9355 27.9897C19.6026 34.5559 26.1939 38.8617 34.3386 39.0747L59.4689 39.0849L59.5147 11.4491C54.4069 10.4964 49.4186 11.4491 44.8801 13.4904C43.8511 13.0731 42.7579 12.8001 41.6382 12.6806C46.7928 9.59375 53.0372 8.36848 59.1399 9.24649C60.1008 9.35838 61.036 9.60829 61.9101 9.98681L61.8928 41.2807" fill="#A9181B"/>
<path fill-rule="evenodd" clip-rule="evenodd" d="M68.6381 51.1136C67.1741 51.1715 66.8226 51.1715 65.1077 51.1715C65.0957 50.0494 65.0837 49.7201 65.1077 48.3497C66.6506 48.3497 66.933 48.3497 68.2505 48.3851L68.3181 48.3007C68.3301 47.9251 68.3301 47.806 68.3744 47.3917L68.3181 47.3107C66.933 47.3345 66.5026 47.3461 65.1077 47.3345C65.1077 46.2458 65.1077 45.9056 65.1423 44.8169C66.583 44.8278 67.0704 44.8278 68.5344 44.8754L68.6028 44.7938C68.6253 44.3678 68.6478 44.2256 68.6816 43.8725L68.6133 43.7901C66.5259 43.8139 66.0834 43.8139 63.848 43.8248L63.7804 43.9058C63.8593 45.2667 63.8593 46.3982 63.8593 48.3817C63.8593 50.5428 63.8248 51.179 63.7917 52.1112L63.848 52.1969C66.0038 52.1731 66.3554 52.1588 68.5682 52.1588L68.6478 52.0778C68.6711 51.675 68.6711 51.5933 68.7042 51.1932L68.6381 51.1136ZM61.8725 51.5811C61.8492 50.4734 61.838 49.3493 61.838 48.2408C61.838 46.7888 61.8605 45.315 61.8838 43.8731L61.8147 43.7908C61.364 43.8146 61.2491 43.8255 60.7376 43.8255L60.6692 43.9065C60.7143 44.723 60.7263 44.9952 60.7714 46.848L60.8622 50.7666L59.4553 48.181C58.7042 46.8113 57.911 45.3116 57.1396 43.8725L57.0261 43.7901C56.3787 43.8139 56.2652 43.8139 55.5637 43.8248L55.5066 43.9058C55.5637 45.5116 55.5734 47.1311 55.5734 48.7369C55.5734 49.8582 55.5637 50.9925 55.5171 52.1125L55.5847 52.1983C55.947 52.1675 56.3108 52.1548 56.6746 52.1601L56.7437 52.0792C56.7189 51.5947 56.7189 51.5689 56.6866 50.5911C56.6746 50.0964 56.6513 49.6119 56.6401 49.1152L56.5266 45.0659L58.3204 48.3953C59.0024 49.633 59.6724 50.8741 60.3394 52.1125L60.4311 52.1983C61.1124 52.1601 61.1574 52.1601 61.8275 52.1601L61.8838 52.0792L61.8725 51.5811ZM53.5348 43.7908C53.0841 43.8146 53.0128 43.8146 52.4915 43.8255L52.4351 43.9065C52.514 45.2531 52.526 46.9875 52.526 48.3586C52.595 49.0632 52.51 49.7733 52.2759 50.4482C52.1366 50.6896 51.9342 50.8966 51.6864 51.0509C51.4385 51.2053 51.1528 51.3025 50.854 51.3339C50.5553 51.3654 50.2526 51.3302 49.9723 51.2315C49.692 51.1327 49.4426 50.9733 49.2458 50.7673C48.8492 50.2828 48.8274 49.5629 48.8274 48.3858C48.8274 47.2392 48.8274 45.1027 48.871 43.8765L48.8139 43.7942C48.2483 43.818 48.1686 43.818 47.5444 43.8289L47.4641 43.9099C47.4979 45.4443 47.4979 45.6484 47.4979 47.3576V48.5613C47.4979 49.9433 47.4979 50.6523 48.1108 51.3838C48.4128 51.7095 48.7953 51.9661 49.2273 52.1329C49.6593 52.2998 50.1285 52.372 50.5971 52.3439C51.0346 52.3663 51.472 52.2989 51.8766 52.1467C52.2813 51.9945 52.6427 51.7613 52.9339 51.4647C53.4544 50.7335 53.6864 49.8641 53.5919 48.9982L53.5806 47.936C53.5694 47.0514 53.5694 46.6738 53.5694 46.1669C53.5694 45.2347 53.5806 44.9523 53.6039 43.8779L53.5348 43.7908ZM41.9612 48.0272C41.9612 47.4958 41.9477 46.9643 41.9477 46.4329C41.9477 45.8797 41.9612 45.3252 41.9612 44.7829C42.2998 44.7481 42.6405 44.7322 42.9812 44.7352C43.327 44.6883 43.6802 44.7432 43.9889 44.8918C44.2976 45.0404 44.5455 45.2748 44.6961 45.5606C44.7897 45.7952 44.8355 46.0433 44.8313 46.2928C44.8384 46.5858 44.7724 46.8766 44.6383 47.1433C44.4902 47.3932 44.271 47.6027 44.0034 47.75C43.7358 47.8973 43.4295 47.977 43.1164 47.9809C42.8115 48.017 42.345 48.017 41.9612 48.0279V48.0272ZM42.0506 52.0792C41.983 50.638 41.983 50.2611 41.9717 48.9859C42.1302 48.9859 42.2774 48.9961 42.4825 48.9961C43.8345 48.9961 45.1047 48.7498 45.7627 47.604C45.9909 47.1942 46.1073 46.7408 46.1022 46.2819C46.1414 45.7919 46.0089 45.3032 45.7237 44.8854C45.4385 44.4676 45.015 44.1419 44.5136 43.9548C43.9054 43.7994 43.2722 43.7398 42.6417 43.7786L41.8906 43.8024C41.6863 43.8024 40.8337 43.8269 40.6534 43.8269L40.5971 43.9078C40.6985 45.7035 40.6985 47.5822 40.6985 49.4105C40.6985 50.7938 40.688 51.3695 40.6647 52.1132L40.7323 52.1989C41.1475 52.1669 41.5641 52.1541 41.9807 52.1608L42.0506 52.0792Z" fill="#171412"/>
<path fill-rule="evenodd" clip-rule="evenodd" d="M32.3285 45.4925C32.4788 45.4925 32.8153 45.4816 32.967 45.4816C33.1057 45.4651 33.2467 45.4775 33.3794 45.5177C33.5121 45.5579 33.6329 45.6249 33.7327 45.7137C33.8325 45.8025 33.9087 45.9107 33.9555 46.0301C34.0023 46.1495 34.0185 46.277 34.0028 46.4029C34.0028 47.4787 32.7747 47.4671 32.3022 47.4563L32.3285 45.4925ZM32.7244 49.0648L33.5289 50.6264L34.2222 52.1145L34.3611 52.2118L37.0652 52.1036L37.1148 51.9968L36.2457 50.6142L35.0822 48.5191C35.3606 48.427 35.6159 48.2855 35.8331 48.1029C36.0503 47.9203 36.2251 47.7002 36.3471 47.4556C36.5471 47.0628 36.6479 46.6347 36.6423 46.2022C36.6604 45.8441 36.5892 45.4869 36.4341 45.157C36.279 44.8272 36.0439 44.5333 35.7462 44.297C35.0049 43.7649 33.8398 43.7765 32.5742 43.7996L31.9086 43.8132H29.6026L29.5388 43.8717C29.6282 44.9713 29.6792 45.6572 29.6792 47.5461C29.6792 49.073 29.6409 50.5999 29.6146 52.1261L29.6792 52.1941L32.315 52.1567L32.3901 52.0887C32.315 50.7999 32.3 50.4917 32.3 49.0723L32.7244 49.0648ZM27.5956 48.7089L27.6842 48.6409L27.7864 47.0909L27.7112 47.0065L24.9095 47.0534V45.5517H27.8645L27.9396 45.4925L28.029 43.8595L27.9651 43.8146H22.2091L22.134 43.8826C22.1963 45.087 22.2234 45.5714 22.2234 48.4116C22.2234 50.0195 22.2114 50.7523 22.1731 52.1118L22.2354 52.1975C23.4507 52.186 24.1809 52.1601 25.5885 52.1601C25.9716 52.1601 26.2645 52.1758 28.0177 52.1758L28.1334 52.1016L28.2603 50.3515L28.1852 50.2801C26.8677 50.3277 25.9318 50.3515 24.935 50.3515V48.7069L27.5956 48.7089ZM14.5309 49.9276C14.5196 50.7911 14.5054 50.9319 14.4415 51.8328L14.5452 51.9498C15.3003 52.2264 16.1097 52.3607 16.924 52.3445C18.216 52.3445 19.5215 52.1152 20.2757 51.0871C20.6025 50.6242 20.7801 50.0878 20.7887 49.5384C20.8025 49.2237 20.7436 48.9098 20.6159 48.6169C20.4881 48.324 20.2942 48.0584 20.0466 47.8373C19.652 47.5138 19.1932 47.2612 18.6945 47.0929L17.9907 46.8207C17.7082 46.7132 17.1336 46.5009 17.1336 46.0498C17.1365 45.9464 17.163 45.8446 17.2115 45.7509C17.26 45.6572 17.3294 45.5736 17.4153 45.5054C17.6311 45.368 17.8941 45.3052 18.1567 45.3285C18.6389 45.3378 19.1103 45.4596 19.5253 45.6824C19.7232 45.7915 19.9118 45.9141 20.0894 46.0491L20.2043 46.0015L20.3147 44.1548L20.2621 44.0867C19.4978 43.7649 18.662 43.6068 17.8194 43.6247C17.3605 43.5876 16.8981 43.6332 16.4588 43.759C16.0195 43.8848 15.6122 44.0882 15.2603 44.3576C14.9832 44.6049 14.767 44.9025 14.6258 45.2308C14.4846 45.5592 14.4215 45.9108 14.4408 46.2628C14.4408 47.8829 15.6426 48.3919 16.5274 48.76L17.1659 48.9947C17.5498 49.1499 18.0748 49.3499 18.0748 49.8112C18.0748 50.0154 17.9599 50.5924 16.8084 50.5924C16.1427 50.5958 15.4903 50.4239 14.9305 50.0977C14.8313 50.0356 14.7369 49.9674 14.6481 49.8936L14.5309 49.9276ZM12.8175 52.105C12.768 50.4502 12.7267 48.7593 12.7267 47.0922C12.7267 45.7313 12.7537 45.021 12.7928 43.8384L12.7417 43.7799C11.4873 43.8268 11.2184 43.8268 9.96244 43.8159L9.89934 43.8744C9.94967 45.1387 9.97446 45.9096 9.97446 46.95C9.97446 47.6243 9.96094 48.2973 9.94817 48.9723C9.9354 50.0242 9.92263 51.0762 9.92263 52.1417L9.97371 52.2016C11.2409 52.1533 11.5474 52.1533 12.7635 52.1642L12.8175 52.105ZM8.02073 52.105C7.96965 50.4502 7.93134 48.7593 7.93134 47.0922C7.93134 45.7313 7.95764 45.021 7.9952 43.8384L7.94412 43.7799C6.68971 43.8268 6.42229 43.8268 5.16488 43.8159L5.10028 43.8744C5.15061 45.1387 5.17539 45.9096 5.17539 46.95C5.17539 47.6243 5.16338 48.2973 5.1491 48.9723C5.13709 50.0242 5.12357 51.0762 5.12357 52.1417L5.17464 52.2016C6.44182 52.1533 6.7483 52.1533 7.96365 52.1642L8.02073 52.105Z" fill="#171412"/>
</svg>
