<svg width="302" height="54" viewBox="0 0 302 54" fill="none" xmlns="http://www.w3.org/2000/svg">
<path fill-rule="evenodd" clip-rule="evenodd" d="M277.338 17.0279C278.994 17.0278 280.613 17.429 281.991 18.181C283.368 18.9329 284.442 20.0016 285.076 21.2521C285.71 22.5026 285.876 23.8786 285.553 25.2062C285.23 26.5337 284.432 27.7532 283.261 28.7104C282.09 29.6676 280.597 30.3195 278.973 30.5836C277.348 30.8478 275.664 30.7124 274.134 30.1945C272.604 29.6766 271.295 28.7995 270.375 27.6741C269.455 26.5487 268.963 25.2256 268.963 23.8721C268.968 22.0581 269.851 20.3194 271.421 19.0367C272.99 17.7539 275.118 17.0316 277.338 17.0279" fill="#171412"/>
<path fill-rule="evenodd" clip-rule="evenodd" d="M273.928 32.4849C270.489 32.477 268.212 31.0415 267.14 28.7486C266.067 26.4557 266.2 23.2502 266.2 19.7746C266.2 16.5093 266.736 12.4904 264.065 9.72489C262.259 7.81465 259.637 6.53198 256.723 6.13339C253.538 5.65351 249.45 6.53617 247.108 7.69313C249.251 8.14601 251.124 9.21073 252.39 10.6946C256.482 15.4111 256.235 21.7502 259.478 26.9728C261.917 30.9062 266.851 34.0635 272.522 34.1799L291.424 34.1736V16.4427C290.183 16.3513 288.933 16.394 287.706 16.5696C286.257 16.7588 284.843 17.0972 283.498 17.5766C284.039 17.9379 284.531 18.3452 284.966 18.7917C285.619 18.56 286.299 18.3843 286.996 18.2673C287.77 18.1159 288.561 18.0291 289.357 18.0082V32.4849" fill="#A9181B"/>
<path fill-rule="evenodd" clip-rule="evenodd" d="M271.507 37.8159C268.534 37.8396 265.574 37.4843 262.735 36.7628C256.528 35.0483 252.816 31.0021 250.657 26.196C249.641 24.1726 249.077 21.9353 247.417 20.1647C246.326 18.9886 244.762 18.1656 243 17.8413C243.943 17.1552 245.069 16.6594 246.289 16.3938C249.691 15.6847 252.367 17.0599 253.361 19.8028C254.311 22.4251 255.162 25.1581 256.616 27.5732C259.749 32.6342 265.381 35.953 272.341 36.1172L293.813 36.125L293.852 14.8241C289.488 14.0899 285.226 14.8241 281.348 16.3975C280.468 16.0759 279.534 15.8654 278.578 15.7734C282.982 13.3941 288.318 12.4497 293.532 13.1264C294.353 13.2127 295.152 13.4053 295.899 13.697L295.884 37.8175" fill="#A9181B"/>
<path fill-rule="evenodd" clip-rule="evenodd" d="M301.648 45.3964C300.397 45.441 300.096 45.441 298.631 45.441C298.621 44.5762 298.611 44.3223 298.631 43.2661C299.949 43.2661 300.191 43.2661 301.317 43.2933L301.374 43.2283C301.385 42.9388 301.385 42.847 301.422 42.5276L301.374 42.4652C300.191 42.4836 299.823 42.4925 298.631 42.4836C298.631 41.6444 298.631 41.3822 298.661 40.5431C299.892 40.5515 300.308 40.5515 301.559 40.5882L301.618 40.5252C301.637 40.1969 301.656 40.0873 301.685 39.8151L301.627 39.7517C299.843 39.77 299.465 39.77 297.555 39.7784L297.497 39.8408C297.564 40.8897 297.564 41.7619 297.564 43.2907C297.564 44.9564 297.535 45.4468 297.507 46.1653L297.555 46.2314C299.397 46.213 299.697 46.202 301.588 46.202L301.656 46.1396C301.676 45.8291 301.676 45.7662 301.704 45.4578L301.648 45.3964ZM295.867 45.7567C295.847 44.9029 295.837 44.0365 295.837 43.1822C295.837 42.063 295.857 40.927 295.877 39.8157L295.817 39.7522C295.432 39.7705 295.334 39.7789 294.897 39.7789L294.839 39.8413C294.877 40.4707 294.887 40.6805 294.926 42.1086L295.004 45.1289L293.802 43.136C293.16 42.0803 292.482 40.9244 291.823 39.8151L291.726 39.7517C291.173 39.77 291.076 39.77 290.476 39.7784L290.428 39.8408C290.476 41.0785 290.485 42.3268 290.485 43.5645C290.485 44.4288 290.476 45.3031 290.436 46.1663L290.494 46.2324C290.804 46.2087 291.115 46.1989 291.426 46.203L291.485 46.1406C291.463 45.7672 291.463 45.7473 291.436 44.9936C291.426 44.6124 291.406 44.2389 291.396 43.8561L291.299 40.735L292.832 43.3012C293.415 44.2552 293.987 45.2118 294.557 46.1663L294.635 46.2324C295.217 46.203 295.256 46.203 295.828 46.203L295.877 46.1406L295.867 45.7567ZM288.743 39.7522C288.358 39.7705 288.297 39.7705 287.851 39.7789L287.803 39.8413C287.871 40.8793 287.881 42.2161 287.881 43.2729C287.94 43.816 287.867 44.3633 287.667 44.8835C287.548 45.0696 287.375 45.2291 287.163 45.3481C286.952 45.4671 286.707 45.542 286.452 45.5662C286.197 45.5905 285.938 45.5634 285.699 45.4872C285.459 45.4111 285.246 45.2883 285.078 45.1295C284.739 44.7561 284.721 44.2012 284.721 43.2939C284.721 42.4101 284.721 40.7633 284.758 39.8183L284.709 39.7548C284.226 39.7732 284.158 39.7732 283.624 39.7816L283.556 39.844C283.584 41.0266 283.584 41.184 283.584 42.5014V43.4292C283.584 44.4944 283.584 45.0408 284.108 45.6046C284.366 45.8557 284.693 46.0535 285.062 46.1821C285.431 46.3106 285.832 46.3663 286.233 46.3446C286.606 46.362 286.98 46.31 287.326 46.1927C287.672 46.0753 287.98 45.8957 288.229 45.667C288.674 45.1034 288.872 44.4333 288.792 43.7659L288.782 42.9472C288.772 42.2654 288.772 41.9743 288.772 41.5836C288.772 40.8651 288.782 40.6474 288.802 39.8193L288.743 39.7522ZM278.854 43.0175C278.854 42.6079 278.842 42.1983 278.842 41.7887C278.842 41.3623 278.854 40.9348 278.854 40.5169C279.143 40.4901 279.434 40.4778 279.725 40.4801C280.021 40.444 280.322 40.4863 280.586 40.6008C280.85 40.7153 281.062 40.896 281.191 41.1163C281.271 41.2971 281.31 41.4884 281.306 41.6806C281.312 41.9065 281.256 42.1306 281.141 42.3362C281.015 42.5288 280.827 42.6903 280.599 42.8038C280.37 42.9173 280.108 42.9788 279.841 42.9818C279.58 43.0096 279.182 43.0096 278.854 43.018V43.0175ZM278.93 46.1406C278.872 45.0298 278.872 44.7393 278.863 43.7564C278.998 43.7564 279.124 43.7643 279.299 43.7643C280.454 43.7643 281.54 43.5745 282.102 42.6913C282.297 42.3754 282.396 42.026 282.392 41.6722C282.425 41.2946 282.312 40.9179 282.069 40.5959C281.825 40.2738 281.463 40.0228 281.035 39.8786C280.515 39.7588 279.974 39.7129 279.435 39.7428L278.793 39.7611C278.619 39.7611 277.89 39.78 277.736 39.78L277.688 39.8424C277.775 41.2264 277.775 42.6745 277.775 44.0837C277.775 45.1499 277.766 45.5936 277.746 46.1669L277.804 46.2329C278.158 46.2082 278.514 46.1984 278.87 46.2036L278.93 46.1406Z" fill="#171412"/>
<path fill-rule="evenodd" clip-rule="evenodd" d="M270.623 41.0639C270.751 41.0639 271.039 41.0555 271.169 41.0555C271.287 41.0428 271.408 41.0522 271.521 41.0832C271.634 41.1142 271.738 41.1659 271.823 41.2343C271.908 41.3028 271.973 41.3862 272.013 41.4782C272.053 41.5702 272.067 41.6685 272.054 41.7656C272.054 42.5948 271.004 42.5858 270.601 42.5774L270.623 41.0639ZM270.961 43.8173L271.649 45.0209L272.241 46.1679L272.36 46.2429L274.67 46.1595L274.713 46.0772L273.97 45.0115L272.976 43.3967C273.214 43.3257 273.432 43.2166 273.618 43.0758C273.803 42.9351 273.952 42.7655 274.057 42.5769C274.228 42.2742 274.314 41.9442 274.309 41.6109C274.324 41.3348 274.264 41.0595 274.131 40.8053C273.999 40.5511 273.798 40.3245 273.543 40.1424C272.91 39.7323 271.914 39.7412 270.833 39.759L270.264 39.7695H268.294L268.239 39.8146C268.316 40.6621 268.359 41.1908 268.359 42.6467C268.359 43.8236 268.327 45.0004 268.304 46.1768L268.359 46.2293L270.612 46.2004L270.676 46.148C270.612 45.1546 270.599 44.9171 270.599 43.823L270.961 43.8173ZM266.579 43.543L266.655 43.4905L266.742 42.2958L266.678 42.2308L264.284 42.267V41.1095H266.809L266.873 41.0639L266.949 39.8052L266.895 39.7705H261.977L261.912 39.823C261.966 40.7513 261.989 41.1247 261.989 43.3138C261.989 44.5531 261.978 45.1179 261.946 46.1658L261.999 46.2319C263.037 46.223 263.661 46.203 264.864 46.203C265.191 46.203 265.442 46.2151 266.94 46.2151L267.039 46.1579L267.147 44.809L267.083 44.754C265.957 44.7907 265.157 44.809 264.306 44.809V43.5414L266.579 43.543ZM255.416 44.4823C255.406 45.1478 255.394 45.2564 255.34 45.9508L255.428 46.041C256.073 46.2542 256.765 46.3577 257.461 46.3452C258.565 46.3452 259.68 46.1684 260.325 45.376C260.604 45.0192 260.756 44.6058 260.763 44.1823C260.775 43.9397 260.724 43.6978 260.615 43.472C260.506 43.2462 260.34 43.0416 260.129 42.8711C259.792 42.6218 259.4 42.4271 258.973 42.2974L258.372 42.0876C258.131 42.0047 257.64 41.8411 257.64 41.4934C257.642 41.4137 257.665 41.3352 257.706 41.263C257.748 41.1908 257.807 41.1264 257.88 41.0738C258.065 40.9679 258.29 40.9195 258.514 40.9375C258.926 40.9446 259.329 41.0385 259.683 41.2102C259.853 41.2943 260.014 41.3888 260.165 41.4929L260.264 41.4562L260.358 40.0328L260.313 39.9803C259.66 39.7323 258.946 39.6104 258.226 39.6242C257.834 39.5956 257.439 39.6307 257.063 39.7277C256.688 39.8247 256.34 39.9815 256.039 40.1891C255.802 40.3797 255.618 40.6091 255.497 40.8622C255.376 41.1152 255.322 41.3863 255.339 41.6575C255.339 42.9063 256.366 43.2986 257.122 43.5823L257.667 43.7632C257.995 43.8828 258.444 44.037 258.444 44.3926C258.444 44.5499 258.346 44.9947 257.362 44.9947C256.793 44.9973 256.236 44.8648 255.757 44.6134C255.673 44.5655 255.592 44.513 255.516 44.4561L255.416 44.4823ZM253.952 46.1606C253.91 44.8851 253.874 43.5818 253.874 42.2969C253.874 41.2479 253.897 40.7004 253.931 39.7889L253.887 39.7438C252.815 39.78 252.586 39.78 251.512 39.7716L251.458 39.8167C251.501 40.7911 251.523 41.3853 251.523 42.1872C251.523 42.707 251.511 43.2257 251.5 43.7459C251.489 44.5568 251.478 45.3676 251.478 46.1889L251.522 46.235C252.605 46.1978 252.867 46.1978 253.906 46.2062L253.952 46.1606ZM249.853 46.1606C249.81 44.8851 249.777 43.5818 249.777 42.2969C249.777 41.2479 249.799 40.7004 249.831 39.7889L249.788 39.7438C248.716 39.78 248.488 39.78 247.413 39.7716L247.358 39.8167C247.401 40.7911 247.422 41.3853 247.422 42.1872C247.422 42.707 247.412 43.2257 247.4 43.7459C247.389 44.5568 247.378 45.3676 247.378 46.1889L247.421 46.235C248.504 46.1978 248.766 46.1978 249.805 46.2062L249.853 46.1606Z" fill="#171412"/>
<g filter="url(#filter0_d_44_376)">
<path d="M4.12 29.8C4.12 27.6027 4.61067 25.64 5.592 23.912C6.59467 22.1627 7.94933 20.808 9.656 19.848C11.384 18.8667 13.3147 18.376 15.448 18.376C17.944 18.376 20.1307 19.016 22.008 20.296C23.8853 21.576 25.1973 23.3467 25.944 25.608H20.792C20.28 24.5413 19.5547 23.7413 18.616 23.208C17.6987 22.6747 16.632 22.408 15.416 22.408C14.1147 22.408 12.952 22.7173 11.928 23.336C10.9253 23.9333 10.136 24.7867 9.56 25.896C9.00533 27.0053 8.728 28.3067 8.728 29.8C8.728 31.272 9.00533 32.5733 9.56 33.704C10.136 34.8133 10.9253 35.6773 11.928 36.296C12.952 36.8933 14.1147 37.192 15.416 37.192C16.632 37.192 17.6987 36.9253 18.616 36.392C19.5547 35.8373 20.28 35.0267 20.792 33.96H25.944C25.1973 36.2427 23.8853 38.024 22.008 39.304C20.152 40.5627 17.9653 41.192 15.448 41.192C13.3147 41.192 11.384 40.712 9.656 39.752C7.94933 38.7707 6.59467 37.416 5.592 35.688C4.61067 33.96 4.12 31.9973 4.12 29.8ZM48.8745 41H44.3945L34.2505 25.672V41H29.7705V18.632H34.2505L44.3945 33.992V18.632H48.8745V41ZM61.0138 41.224C59.4564 41.224 58.0484 40.9573 56.7898 40.424C55.5524 39.8907 54.5711 39.1227 53.8458 38.12C53.1204 37.1173 52.7471 35.9333 52.7258 34.568H57.5258C57.5898 35.4853 57.9098 36.2107 58.4858 36.744C59.0831 37.2773 59.8938 37.544 60.9178 37.544C61.9631 37.544 62.7844 37.2987 63.3818 36.808C63.9791 36.296 64.2778 35.6347 64.2778 34.824C64.2778 34.1627 64.0751 33.6187 63.6698 33.192C63.2644 32.7653 62.7524 32.4347 62.1338 32.2C61.5364 31.944 60.7044 31.6667 59.6378 31.368C58.1871 30.9413 57.0031 30.5253 56.0858 30.12C55.1898 29.6933 54.4111 29.064 53.7498 28.232C53.1098 27.3787 52.7898 26.248 52.7898 24.84C52.7898 23.5173 53.1204 22.3653 53.7818 21.384C54.4431 20.4027 55.3711 19.656 56.5658 19.144C57.7604 18.6107 59.1258 18.344 60.6618 18.344C62.9658 18.344 64.8324 18.9093 66.2618 20.04C67.7124 21.1493 68.5124 22.7067 68.6618 24.712H63.7338C63.6911 23.944 63.3604 23.3147 62.7418 22.824C62.1444 22.312 61.3444 22.056 60.3418 22.056C59.4671 22.056 58.7631 22.28 58.2298 22.728C57.7178 23.176 57.4618 23.8267 57.4618 24.68C57.4618 25.2773 57.6538 25.7787 58.0378 26.184C58.4431 26.568 58.9338 26.888 59.5098 27.144C60.1071 27.3787 60.9391 27.656 62.0058 27.976C63.4564 28.4027 64.6404 28.8293 65.5578 29.256C66.4751 29.6827 67.2644 30.3227 67.9258 31.176C68.5871 32.0293 68.9178 33.1493 68.9178 34.536C68.9178 35.7307 68.6084 36.84 67.9897 37.864C67.3711 38.888 66.4644 39.7093 65.2698 40.328C64.0751 40.9253 62.6564 41.224 61.0138 41.224ZM80.6098 18.664C82.9564 18.664 85.0151 19.1227 86.7858 20.04C88.5778 20.9573 89.9538 22.2693 90.9138 23.976C91.8951 25.6613 92.3858 27.624 92.3858 29.864C92.3858 32.104 91.8951 34.0667 90.9138 35.752C89.9538 37.416 88.5778 38.7067 86.7858 39.624C85.0151 40.5413 82.9564 41 80.6098 41H72.8018V18.664H80.6098ZM80.4498 37.192C82.7964 37.192 84.6098 36.552 85.8898 35.272C87.1698 33.992 87.8098 32.1893 87.8098 29.864C87.8098 27.5387 87.1698 25.7253 85.8898 24.424C84.6098 23.1013 82.7964 22.44 80.4498 22.44H77.2818V37.192H80.4498ZM104.26 35.944C106.308 34.2373 107.94 32.8187 109.156 31.688C110.372 30.536 111.386 29.3413 112.196 28.104C113.007 26.8667 113.412 25.6507 113.412 24.456C113.412 23.368 113.156 22.5147 112.644 21.896C112.132 21.2773 111.343 20.968 110.276 20.968C109.21 20.968 108.388 21.3307 107.812 22.056C107.236 22.76 106.938 23.7307 106.916 24.968H102.564C102.65 22.408 103.407 20.4667 104.836 19.144C106.287 17.8213 108.122 17.16 110.34 17.16C112.772 17.16 114.639 17.8107 115.94 19.112C117.242 20.392 117.892 22.088 117.892 24.2C117.892 25.864 117.444 27.4533 116.548 28.968C115.652 30.4827 114.628 31.8053 113.476 32.936C112.324 34.0453 110.82 35.3893 108.964 36.968H118.404V40.68H102.596V37.352L104.26 35.944ZM121.227 29.032C121.227 25.3413 121.889 22.4507 123.211 20.36C124.555 18.2693 126.774 17.224 129.867 17.224C132.961 17.224 135.169 18.2693 136.491 20.36C137.835 22.4507 138.507 25.3413 138.507 29.032C138.507 32.744 137.835 35.656 136.491 37.768C135.169 39.88 132.961 40.936 129.867 40.936C126.774 40.936 124.555 39.88 123.211 37.768C121.889 35.656 121.227 32.744 121.227 29.032ZM134.091 29.032C134.091 27.4533 133.985 26.1307 133.771 25.064C133.579 23.976 133.174 23.0907 132.555 22.408C131.958 21.7253 131.062 21.384 129.867 21.384C128.673 21.384 127.766 21.7253 127.147 22.408C126.55 23.0907 126.145 23.976 125.931 25.064C125.739 26.1307 125.643 27.4533 125.643 29.032C125.643 30.6533 125.739 32.0187 125.931 33.128C126.123 34.216 126.529 35.1013 127.147 35.784C127.766 36.4453 128.673 36.776 129.867 36.776C131.062 36.776 131.969 36.4453 132.587 35.784C133.206 35.1013 133.611 34.216 133.803 33.128C133.995 32.0187 134.091 30.6533 134.091 29.032ZM143.323 35.944C145.371 34.2373 147.003 32.8187 148.219 31.688C149.435 30.536 150.448 29.3413 151.259 28.104C152.069 26.8667 152.475 25.6507 152.475 24.456C152.475 23.368 152.219 22.5147 151.707 21.896C151.195 21.2773 150.405 20.968 149.339 20.968C148.272 20.968 147.451 21.3307 146.875 22.056C146.299 22.76 146 23.7307 145.979 24.968H141.627C141.712 22.408 142.469 20.4667 143.899 19.144C145.349 17.8213 147.184 17.16 149.403 17.16C151.835 17.16 153.701 17.8107 155.003 19.112C156.304 20.392 156.955 22.088 156.955 24.2C156.955 25.864 156.507 27.4533 155.611 28.968C154.715 30.4827 153.691 31.8053 152.539 32.936C151.387 34.0453 149.883 35.3893 148.027 36.968H157.467V40.68H141.659V37.352L143.323 35.944ZM161.698 35.944C163.746 34.2373 165.378 32.8187 166.594 31.688C167.81 30.536 168.823 29.3413 169.634 28.104C170.444 26.8667 170.85 25.6507 170.85 24.456C170.85 23.368 170.594 22.5147 170.082 21.896C169.57 21.2773 168.78 20.968 167.714 20.968C166.647 20.968 165.826 21.3307 165.25 22.056C164.674 22.76 164.375 23.7307 164.354 24.968H160.002C160.087 22.408 160.844 20.4667 162.274 19.144C163.724 17.8213 165.559 17.16 167.778 17.16C170.21 17.16 172.076 17.8107 173.378 19.112C174.679 20.392 175.33 22.088 175.33 24.2C175.33 25.864 174.882 27.4533 173.986 28.968C173.09 30.4827 172.066 31.8053 170.914 32.936C169.762 34.0453 168.258 35.3893 166.402 36.968H175.842V40.68H160.034V37.352L161.698 35.944Z" fill="#76549A"/>
</g>
<g filter="url(#filter1_d_44_376)">
<path d="M209.264 14.008C211.739 14.008 213.883 14.4667 215.696 15.384C217.509 16.3013 218.896 17.592 219.856 19.256C220.837 20.92 221.328 22.84 221.328 25.016C221.328 26.7653 221.019 28.4187 220.4 29.976C219.803 31.5333 218.928 32.792 217.776 33.752C216.624 34.712 215.259 35.192 213.68 35.192C212.571 35.192 211.675 34.968 210.992 34.52C210.309 34.0507 209.872 33.3893 209.68 32.536C209.061 33.368 208.261 34.0293 207.28 34.52C206.299 34.9893 205.264 35.224 204.176 35.224C202.555 35.224 201.285 34.744 200.368 33.784C199.451 32.8027 198.992 31.4693 198.992 29.784C198.992 28.184 199.323 26.6907 199.984 25.304C200.645 23.9173 201.563 22.808 202.736 21.976C203.909 21.1227 205.232 20.696 206.704 20.696C208.539 20.696 209.797 21.336 210.48 22.616L210.768 20.952H214.512L213.008 29.592C212.944 29.9973 212.912 30.3707 212.912 30.712C212.912 31.224 213.019 31.608 213.232 31.864C213.445 32.12 213.808 32.248 214.32 32.248C215.088 32.248 215.728 31.8853 216.24 31.16C216.773 30.4347 217.168 29.528 217.424 28.44C217.701 27.352 217.84 26.264 217.84 25.176C217.84 22.5947 217.051 20.6 215.472 19.192C213.893 17.7627 211.664 17.048 208.784 17.048C206.331 17.048 204.112 17.6453 202.128 18.84C200.144 20.0133 198.587 21.624 197.456 23.672C196.347 25.6987 195.792 27.96 195.792 30.456C195.792 33.1013 196.571 35.1387 198.128 36.568C199.707 37.9973 201.936 38.712 204.816 38.712C206.885 38.712 208.709 38.3387 210.288 37.592L210.928 40.536C208.901 41.3893 206.651 41.816 204.176 41.816C201.787 41.816 199.696 41.3573 197.904 40.44C196.112 39.544 194.725 38.264 193.744 36.6C192.763 34.936 192.272 33.0053 192.272 30.808C192.272 27.672 192.997 24.824 194.448 22.264C195.92 19.704 197.947 17.688 200.528 16.216C203.131 14.744 206.043 14.008 209.264 14.008ZM205.584 31.896C206.352 31.896 207.056 31.672 207.696 31.224C208.336 30.776 208.837 30.1787 209.2 29.432C209.584 28.6853 209.776 27.8853 209.776 27.032C209.776 26.136 209.531 25.4107 209.04 24.856C208.549 24.3013 207.867 24.024 206.992 24.024C206.203 24.024 205.509 24.2693 204.912 24.76C204.315 25.2293 203.845 25.848 203.504 26.616C203.184 27.384 203.024 28.1947 203.024 29.048C203.024 29.9227 203.237 30.616 203.664 31.128C204.091 31.64 204.731 31.896 205.584 31.896Z" fill="#DF7861"/>
</g>
<defs>
<filter id="filter0_d_44_376" x="0.119995" y="17.16" width="179.722" height="32.064" filterUnits="userSpaceOnUse" color-interpolation-filters="sRGB">
<feFlood flood-opacity="0" result="BackgroundImageFix"/>
<feColorMatrix in="SourceAlpha" type="matrix" values="0 0 0 0 0 0 0 0 0 0 0 0 0 0 0 0 0 0 127 0" result="hardAlpha"/>
<feOffset dy="4"/>
<feGaussianBlur stdDeviation="2"/>
<feComposite in2="hardAlpha" operator="out"/>
<feColorMatrix type="matrix" values="0 0 0 0 0 0 0 0 0 0 0 0 0 0 0 0 0 0 0.25 0"/>
<feBlend mode="normal" in2="BackgroundImageFix" result="effect1_dropShadow_44_376"/>
<feBlend mode="normal" in="SourceGraphic" in2="effect1_dropShadow_44_376" result="shape"/>
</filter>
<filter id="filter1_d_44_376" x="188.272" y="14.008" width="37.056" height="35.808" filterUnits="userSpaceOnUse" color-interpolation-filters="sRGB">
<feFlood flood-opacity="0" result="BackgroundImageFix"/>
<feColorMatrix in="SourceAlpha" type="matrix" values="0 0 0 0 0 0 0 0 0 0 0 0 0 0 0 0 0 0 127 0" result="hardAlpha"/>
<feOffset dy="4"/>
<feGaussianBlur stdDeviation="2"/>
<feComposite in2="hardAlpha" operator="out"/>
<feColorMatrix type="matrix" values="0 0 0 0 0 0 0 0 0 0 0 0 0 0 0 0 0 0 0.25 0"/>
<feBlend mode="normal" in2="BackgroundImageFix" result="effect1_dropShadow_44_376"/>
<feBlend mode="normal" in="SourceGraphic" in2="effect1_dropShadow_44_376" result="shape"/>
</filter>
</defs>
</svg>
